<?xml version="1.0" encoding="UTF-8" standalone="no"?>
<!-- Created with Inkscape (http://www.inkscape.org/) -->

<svg
   width="184.77585mm"
   height="184.77585mm"
   viewBox="0 0 184.77585 184.77585"
   version="1.1"
   id="svg372"
   inkscape:version="1.2.2 (732a01da63, 2022-12-09)"
   sodipodi:docname="logo.svg"
   inkscape:export-filename="logo.png"
   inkscape:export-xdpi="20.620001"
   inkscape:export-ydpi="20.620001"
   xmlns:inkscape="http://www.inkscape.org/namespaces/inkscape"
   xmlns:sodipodi="http://sodipodi.sourceforge.net/DTD/sodipodi-0.dtd"
   xmlns="http://www.w3.org/2000/svg"
   xmlns:svg="http://www.w3.org/2000/svg">
  <sodipodi:namedview
     id="namedview374"
     pagecolor="#ffffff"
     bordercolor="#000000"
     borderopacity="0.25"
     inkscape:showpageshadow="2"
     inkscape:pageopacity="0.0"
     inkscape:pagecheckerboard="0"
     inkscape:deskcolor="#d1d1d1"
     inkscape:document-units="mm"
     showgrid="false"
     inkscape:zoom="0.914906"
     inkscape:cx="68.859533"
     inkscape:cy="560.71334"
     inkscape:window-width="2880"
     inkscape:window-height="1526"
     inkscape:window-x="-11"
     inkscape:window-y="748"
     inkscape:window-maximized="1"
     inkscape:current-layer="layer1" />
  <defs
     id="defs369" />
  <g
     inkscape:label="Ebene 1"
     inkscape:groupmode="layer"
     id="layer1"
     transform="translate(-8.7817813)">
    <svg
       viewBox="0 0 193.55763 193.55763"
       height="193.55763"
       width="193.55763"
       version="1.1"
       id="svg41">
      <g
         id="g21">
        <svg
           version="1.1"
           id="svg19"
           width="100%"
           height="100%" />
      </g>
      <g
         id="icon-0">
        <svg
           viewBox="0 0 193.55763 193.55763"
           height="193.55763"
           width="193.55763"
           version="1.1"
           id="svg38">
          <g
             id="g27">
            <rect
               width="175.99406"
               height="175.99406"
               x="8.7817812"
               y="8.7817812"
               fill="#8b3c7f"
               data-fill-palette-color="accent"
               id="rect23" />
            <rect
               width="175.99406"
               height="175.99406"
               x="17.563562"
               y="8.8817842e-15"
               fill="#8b3c7f"
               opacity="0.5"
               data-fill-palette-color="accent"
               id="rect25" />
          </g>
          <g
             transform="translate(25.090804,44.316286)"
             id="g36">
            <svg
               viewBox="0 0 143.37602 104.92505"
               height="104.92506"
               width="143.37602"
               version="1.1"
               id="svg34">
              <g
                 id="g32">
                <svg
                   version="1.1"
                   x="0"
                   y="0"
                   viewBox="0 13.408 99.999 73.181"
                   enable-background="new 0 0 100 100"
                   xml:space="preserve"
                   height="104.92506"
                   width="143.37602"
                   class="icon-gn-0"
                   data-fill-palette-color="background"
                   id="gn-0"><path
                     d="M 63.591,66.591 C 54.522,66.591 46.999,59.07 46.999,50 c 0,-9.07 7.522,-16.592 16.592,-16.592 h 36.408 l -31,-20 v 5 c 0,2.762 -2.238,5 -5,5 h -0.408 v -0.002 c -11.149,0 -20.712,6.901 -24.657,16.654 l 0.018,-0.062 c -0.913,2.63 -3.69,5 -6.452,5 H 0 c 0,5.522 4.549,10 10.158,10 h 22.341 c 2.762,0 5.539,2.371 6.452,5 l -0.017,-0.056 c 3.946,9.75 13.509,16.649 24.656,16.649 v -0.002 h 0.408 c 2.762,0 5,2.238 5,5 v 5 l 31,-20 H 63.591 Z"
                     fill="#ffffff"
                     data-fill-palette-color="background"
                     id="path29" /></svg>
              </g>
            </svg>
          </g>
        </svg>
      </g>
    </svg>
  </g>
</svg>
